<?xml version="1.0" encoding="utf-8"?>
<!-- Generator: Adobe Illustrator 16.0.4, SVG Export Plug-In . SVG Version: 6.00 Build 0)  -->
<!DOCTYPE svg PUBLIC "-//W3C//DTD SVG 1.1//EN" "http://www.w3.org/Graphics/SVG/1.1/DTD/svg11.dtd">
<svg version="1.1" id="レイヤー_1" xmlns="http://www.w3.org/2000/svg" xmlns:xlink="http://www.w3.org/1999/xlink" x="0px"
	 y="0px" width="100px" height="40px" viewBox="0 0 100 40" enable-background="new 0 0 100 40" xml:space="preserve">
<g>
	<path fill="#FFFFFF" d="M22.947,39.835c-2.545,0.312-4.989-0.269-7.266-1.725c-2.245-1.436-3.641-4.195-4.148-8.205
		c-0.505-4.005,0.163-7.024,1.98-8.975c1.845-1.976,4.069-3.135,6.611-3.447c1.662-0.203,3.213-0.03,4.608,0.51
		c1.005,0.394,1.942,0.894,2.793,1.498c0.345,0.243,0.381,0.716,0.104,1.03l-1.324,1.485c-0.281,0.316-0.77,0.35-1.118,0.109
		c-1.363-0.936-2.852-1.306-4.437-1.111c-3.008,0.369-6.42,2.136-5.622,8.462c0.797,6.312,4.545,7.197,7.552,6.829
		c1.598-0.196,2.95-0.922,4.031-2.161c0.274-0.32,0.751-0.404,1.103-0.168l1.654,1.136c0.352,0.233,0.432,0.705,0.157,1.026
		c-0.677,0.787-1.457,1.492-2.333,2.109C26.07,39.094,24.61,39.632,22.947,39.835z"/>
	<path fill-rule="evenodd" clip-rule="evenodd" fill="#FFFFFF" d="M39.872,38.043c-1.71-0.278-3.053-0.794-3.99-1.526
		c-0.967-0.758-1.701-1.521-2.186-2.272c-0.684-1.045-1.119-2.171-1.288-3.347c-0.177-1.198-0.06-3.035,0.347-5.451
		c0.4-2.377,0.888-4.131,1.448-5.207c0.545-1.066,1.326-1.99,2.31-2.757c0.706-0.547,1.653-1.038,2.822-1.462
		c1.131-0.41,2.572-0.475,4.277-0.196c1.679,0.272,3.008,0.794,3.953,1.54c0.97,0.774,1.711,1.54,2.2,2.282
		c0.68,1.038,1.114,2.161,1.287,3.342c0.173,1.203,0.061,3.013-0.34,5.389c-0.405,2.417-0.896,4.189-1.453,5.272
		c-0.55,1.062-1.332,1.987-2.315,2.755c-0.708,0.56-1.66,1.047-2.825,1.457C42.982,38.255,41.55,38.317,39.872,38.043z
		 M43.019,19.344c-1.883-0.306-3.4,0.099-4.5,1.209c-0.592,0.585-1.045,1.246-1.34,1.954c-0.289,0.691-0.565,1.842-0.847,3.521
		c-0.29,1.723-0.41,2.925-0.364,3.674c0.045,0.777,0.259,1.542,0.634,2.276c0.672,1.392,1.975,2.259,3.858,2.567
		c1.851,0.301,3.363-0.105,4.493-1.205c0.57-0.586,1.007-1.229,1.317-1.934c0.308-0.69,0.594-1.86,0.882-3.569
		c0.287-1.708,0.398-2.902,0.335-3.659c-0.061-0.755-0.264-1.515-0.603-2.246C46.168,20.513,44.87,19.647,43.019,19.344z"/>
	<path fill-rule="evenodd" clip-rule="evenodd" fill="#FFFFFF" d="M92.725,38.36c-1.7,0.329-3.141,0.308-4.28-0.055
		c-1.173-0.377-2.131-0.837-2.854-1.374c-1.013-0.745-1.821-1.646-2.397-2.69c-0.592-1.061-1.133-2.823-1.612-5.228
		c-0.469-2.362-0.639-4.174-0.498-5.377c0.136-1.181,0.536-2.316,1.185-3.377c0.467-0.755,1.181-1.542,2.125-2.343
		c0.914-0.773,2.236-1.331,3.935-1.659c1.671-0.321,3.101-0.293,4.252,0.08c1.186,0.393,2.15,0.856,2.871,1.377
		c1.007,0.738,1.811,1.642,2.395,2.688c0.589,1.061,1.128,2.802,1.598,5.163c0.478,2.404,0.65,4.234,0.513,5.439
		c-0.14,1.187-0.538,2.321-1.188,3.378c-0.462,0.768-1.178,1.554-2.128,2.339C95.715,37.485,94.396,38.037,92.725,38.36z
		 M89.022,19.76c-1.873,0.361-3.146,1.264-3.781,2.687c-0.35,0.75-0.54,1.525-0.563,2.291c-0.021,0.747,0.127,1.92,0.458,3.591
		c0.342,1.711,0.657,2.879,0.965,3.565c0.318,0.712,0.792,1.354,1.405,1.912c1.129,1.074,2.652,1.437,4.526,1.075
		c1.846-0.356,3.113-1.259,3.78-2.677c0.327-0.748,0.508-1.507,0.547-2.266c0.042-0.755-0.105-1.947-0.445-3.647
		c-0.337-1.699-0.656-2.857-0.987-3.544c-0.324-0.686-0.784-1.324-1.361-1.896C92.388,19.767,90.867,19.405,89.022,19.76z"/>
	<path fill-rule="evenodd" clip-rule="evenodd" fill="#FFFFFF" d="M62.095,14.271l-1.872,0.273c-0.417,0.06-0.812-0.224-0.873-0.64
		c-0.599-4.194-1.337-9.363-1.537-10.696c-0.351-2.336-0.369-3.212-1.03-3.118c-0.662,0.097-2.418,4.908-1.039,14.096l0.036,0.239
		l-0.016,0.001c0.062,0.417-0.227,0.799-0.65,0.859l-0.796,0.118c-0.423,0.061-0.711,0.447-0.648,0.86l0.256,1.704
		c0.062,0.416,0.451,0.701,0.873,0.639l0.797-0.115c0.423-0.062,0.813,0.227,0.875,0.638l2.56,17.075
		c0.062,0.412,0.455,0.699,0.875,0.641l2.061-0.301c0.422-0.062,0.711-0.449,0.648-0.862l-2.559-17.073
		c-0.062-0.413,0.229-0.799,0.649-0.861l1.87-0.271c0.418-0.062,0.712-0.446,0.648-0.863l-0.256-1.703
		C62.906,14.498,62.513,14.211,62.095,14.271z"/>
	<path fill-rule="evenodd" clip-rule="evenodd" fill="#FFFFFF" d="M77.374,16.318l-1.882-0.176c-0.422-0.04-0.734-0.408-0.693-0.826
		c0.175-1.79,1.346-2.345,1.763-3.966c0.415-1.621-0.257-9.992-0.257-9.992c-0.007-0.083-0.079-0.157-0.164-0.166l-0.209-0.018
		c-0.084-0.009-0.16,0.051-0.171,0.133l-0.725,5.784c-0.01,0.083-0.087,0.143-0.17,0.135L74.57,7.198
		c-0.084-0.008-0.15-0.082-0.146-0.164l0.226-5.708c0.003-0.082-0.063-0.157-0.146-0.164L74.18,1.131
		c-0.085-0.007-0.165,0.053-0.176,0.134l-0.876,5.648c-0.012,0.081-0.091,0.141-0.176,0.133l-0.295-0.027
		c-0.082-0.008-0.146-0.082-0.143-0.165l0.402-5.812c0.003-0.083-0.059-0.158-0.143-0.166l-0.21-0.018
		c-0.085-0.009-0.17,0.05-0.193,0.13c0,0-2.269,8.096-2.17,9.764c0.098,1.668,1.168,2.389,0.992,4.226
		c-0.043,0.417-0.415,0.722-0.842,0.681l-0.801-0.075c-0.426-0.041-0.8,0.266-0.84,0.683l-0.166,1.713
		c-0.041,0.419,0.269,0.789,0.693,0.826l0.801,0.077c0.425,0.04,0.733,0.412,0.693,0.826l-1.664,17.183
		c-0.041,0.412,0.271,0.787,0.693,0.827l2.072,0.193c0.427,0.04,0.801-0.267,0.841-0.683l1.664-17.182
		c0.042-0.415,0.419-0.722,0.841-0.681l1.883,0.177c0.422,0.039,0.798-0.265,0.84-0.684l0.165-1.713
		C78.109,16.73,77.796,16.359,77.374,16.318z"/>
	<path fill="#FFFFFF" d="M8.143,5.979C8.052,3.152,6.094,1.463,3.924,1.532c-2.168,0.069-4.012,1.877-3.92,4.704
		c0.133,4.062,3.199,5.113,3.277,7.503c0.035,1.106-0.693,2.37-0.66,3.393l0.667,20.465c0.013,0.417,0.367,0.748,0.793,0.734
		l2.083-0.067c0.424-0.014,0.759-0.364,0.746-0.781L6.242,17.017c-0.032-0.961-0.861-2.782-0.88-3.342
		C5.285,11.313,8.272,9.914,8.143,5.979z"/>
</g>
</svg>
