<?xml version="1.0" encoding="utf-8"?>
<!-- Generator: Adobe Illustrator 16.0.4, SVG Export Plug-In . SVG Version: 6.00 Build 0)  -->
<!DOCTYPE svg PUBLIC "-//W3C//DTD SVG 1.1//EN" "http://www.w3.org/Graphics/SVG/1.1/DTD/svg11.dtd">
<svg version="1.1" id="レイヤー_1" xmlns="http://www.w3.org/2000/svg" xmlns:xlink="http://www.w3.org/1999/xlink" x="0px"
	 y="0px" width="128px" height="32px" viewBox="-40 8 128 32" enable-background="new -40 8 128 32" xml:space="preserve">
<g>
	<path fill="#FFFFFF" d="M-0.942,26.917l0.021,0.403l-0.066-0.015c-0.473-0.137-0.855-0.299-1.142-0.471
		c-0.713-0.425-1.642-1.243-1.999-2.697c-0.231-0.952-0.848-2.617-1.257-3.718l-0.299-0.812c-0.085-0.241-0.225-0.507-0.417-0.801
		l-0.188-0.283l-4.639,2.178c-0.243-0.206-0.444-0.375-0.552-0.467c-0.001-0.004-0.122-0.097-0.309-0.229l4.714-2.397l-0.488-0.38
		c-0.21-0.166-0.422-0.305-0.628-0.42c-0.393-0.218-1.075-0.564-2.023-1.031l-0.19-0.092l-4.605,2.673
		c-0.384-0.197-0.72-0.386-0.918-0.525l4.349-2.713l-0.645-0.307c-0.135-0.066-0.23-0.109-0.254-0.121
		c-0.051-0.034-0.399-0.253-0.991-0.253c-0.335,0-0.69,0.07-1.049,0.208c-1.205,0.467-2.304,0.807-2.317,0.812
		c-0.085,0.029-0.833,0.276-1.112,0.646c-0.31,0.413-1.226,1.462-1.577,1.653c-0.342,0.19-0.719,0.546-0.786,0.909
		c-0.042,0.214,0.036,0.368,0.113,0.457c0.314,0.379,0.927,0.397,1.049,0.397l0.095,0.005c0.132,0,0.515-0.041,0.832-0.392
		c0,0.08-0.004,0.155,0.006,0.235c0.021,0.18,0.078,0.44,0.219,0.722l-1.826,1.06l-0.05,0.138c-0.08,0.232-0.137,0.397-0.143,0.416
		l-0.018,0.087c-0.018,0.195-0.042,0.852,0.329,1.169c0.127,0.109,0.286,0.166,0.472,0.166c0.095,0,0.2-0.016,0.309-0.045
		c0.488-0.128,0.817-0.305,1.043-0.467l-0.291,0.64l2.474-1.261c0.301,0.2,0.582,0.39,0.833,0.558l-0.893,0.421l-2.804,1.314
		l-0.054,0.154c-0.281,0.766-0.438,1.334-0.471,1.699c-0.012,0.117-0.011,0.229,0.006,0.314c0.089,0.53,0.314,0.896,0.637,1.023
		c0.078,0.026,0.164,0.044,0.253,0.044c0.19,0,0.394-0.078,0.634-0.239c0.042,0.242,0.17,0.807,0.492,1.06
		c0.114,0.093,0.251,0.126,0.456,0.137c0.413-0.044,0.92-0.426,1.263-0.945c0.227-0.342,0.559-1.022,0.37-1.809
		c0.345,0.08,1.19,0.349,1.605,1.12c0.495,0.922,2.593,3.895,3.848,4.479l0.756,0.372c1.098,0.562,2.603,1.325,4.71,1.715
		c0.052,0.015,0.221,0.082,0.443,0.163l-0.392,0.194l3.897,1.801l0.167-0.083c0.524-0.253,2.259-1.449,2.679-5.923
		c0.041-0.438,0.069-0.911,0.082-1.419l0.01-0.32L-0.942,26.917z"/>
	<path fill="#FFAA00" d="M3.019,27.943c0.002-0.13-0.09-0.254-0.222-0.281l-3.567-0.861c-0.093-0.023-0.189,0.001-0.259,0.059
		c-0.068,0.066-0.104,0.149-0.098,0.24c-0.331-0.104-0.646-0.232-0.904-0.391c-0.682-0.404-1.568-1.187-1.91-2.582
		c-0.235-0.958-0.856-2.634-1.266-3.74l-0.298-0.807c-0.082-0.23-0.214-0.496-0.393-0.772l1.434-0.673
		c0.192-0.089,0.271-0.319,0.179-0.513l-0.553-1.12c-0.091-0.191-0.323-0.271-0.513-0.173l-1.885,0.957
		c-0.275-0.23-0.564-0.442-0.863-0.605c-0.398-0.224-1.031-0.542-1.684-0.864l3.112-1.809c0.184-0.105,0.243-0.345,0.133-0.525
		l-0.642-1.071c-0.112-0.184-0.349-0.242-0.529-0.128l-4.102,2.553c-0.319-0.154-0.541-0.259-0.587-0.281
		c-0.139-0.088-0.929-0.536-2.186-0.047c-1.205,0.466-2.295,0.807-2.305,0.808c-0.092,0.028-0.891,0.292-1.208,0.712
		c-0.329,0.438-1.215,1.435-1.516,1.602c-0.356,0.196-0.797,0.587-0.884,1.037c-0.005,0.024-0.01,0.052-0.012,0.075
		c-0.016,0.197,0.039,0.382,0.166,0.536c0.2,0.243,0.489,0.357,0.74,0.41l-15.213,9.481c-0.182,0.106-0.24,0.347-0.13,0.532
		l0.121,0.196c0.11,0.183,0.347,0.242,0.531,0.138l14.07-8.165c-0.015,0.259-0.006,0.916,0.397,1.263
		c0.133,0.119,0.355,0.23,0.688,0.206l-14.677,7.467c-0.191,0.093-0.269,0.324-0.176,0.518l0.101,0.209
		c0.097,0.187,0.327,0.267,0.519,0.175l14.395-6.757c-0.149,0.463-0.262,0.892-0.292,1.224c-0.014,0.129-0.014,0.252,0.003,0.344
		c0.102,0.602,0.37,1.015,0.754,1.164c0.189,0.069,0.473,0.094,0.829-0.077c0.08,0.309,0.226,0.691,0.502,0.91
		c0.173,0.14,0.378,0.196,0.592,0.173c0.465-0.048,1.027-0.462,1.399-1.026c0.254-0.381,0.401-0.795,0.44-1.21
		c0.016-0.148,0.013-0.29,0-0.438c0.378,0.136,0.922,0.404,1.215,0.946c0.569,1.059,2.655,3.964,3.942,4.564l0.743,0.366
		c1.104,0.565,2.617,1.335,4.748,1.729c0.01,0.01,0.021,0.011,0.033,0.013c-0.021,0.035-0.034,0.07-0.038,0.113
		c-0.011,0.117,0.058,0.24,0.167,0.289l3.705,1.707c0.062,0.032,0.137,0.034,0.202,0.02C0.088,35.729,2.895,34.822,3.019,27.943z
		 M-8.381,17.184c0.197,0.113,0.392,0.242,0.582,0.391l-4.171,2.121c-0.161-0.104-0.34-0.208-0.535-0.301l-0.605-0.288
		c-0.364-0.172-0.831-0.391-1.287-0.615l4.012-2.328C-9.616,16.542-8.835,16.931-8.381,17.184z M-19.924,18.774
		c0.038-0.196,0.292-0.468,0.594-0.635c0.472-0.26,1.482-1.475,1.697-1.763c0.155-0.203,0.647-0.42,0.92-0.507
		c0.006,0,1.117-0.347,2.339-0.819c1.05-0.409,1.652-0.015,1.677,0.001c0.012,0.01,0.028,0.018,0.041,0.024
		c0.006,0.004,0.103,0.05,0.265,0.126l-3.753,2.339c-0.649-0.243-1.421,0.006-1.848,0.449c-0.172,0.178-0.293,0.42-0.362,0.692
		c-0.252,0.501-0.671,0.49-0.723,0.489c-0.004,0-0.01,0-0.015,0c-0.009,0-0.023-0.004-0.034-0.004
		c-0.152,0.005-0.583-0.035-0.768-0.255C-19.927,18.872-19.936,18.832-19.924,18.774z M-19.448,22.699
		c-0.202-0.174-0.208-0.652-0.194-0.837c0.007-0.018,0.061-0.179,0.145-0.409l1.546-0.897c0.119,0.166,0.26,0.316,0.421,0.459
		c-0.065,0.583-0.262,0.997-0.266,1.002c0,0,0,0,0,0l0,0c-0.002,0.005-0.246,0.46-1.226,0.721
		C-19.312,22.814-19.415,22.727-19.448,22.699z M-17.273,22.266L-17.273,22.266c0.025-0.052,0.178-0.381,0.271-0.871
		c0.253,0.167,0.503,0.328,0.738,0.484l-1.083,0.553C-17.324,22.375-17.299,22.322-17.273,22.266z M-17.669,26.928
		c-0.253,0.196-0.479,0.275-0.634,0.217c-0.179-0.069-0.325-0.334-0.391-0.724c-0.009-0.05-0.009-0.127-0.001-0.21
		c0.034-0.365,0.213-0.954,0.447-1.6l1.821-0.855c-0.167,0.392-0.312,0.871-0.333,1.371C-16.793,25.925-17.55,26.799-17.669,26.928z
		 M-3.92,33.078c-0.015-0.009-0.032-0.011-0.049-0.012c-2.062-0.387-3.541-1.138-4.619-1.681l-0.761-0.38
		c-1.106-0.518-3.12-3.281-3.676-4.31c-0.487-0.909-1.452-1.223-1.86-1.323c-0.081-0.269-0.246-0.773-0.446-1.04
		c-0.097-0.127-0.281-0.154-0.406-0.057c-0.128,0.098-0.153,0.277-0.058,0.405c0.148,0.196,0.325,0.728,0.4,1.015l0.001,0.008
		c0,0.001,0,0.002,0.001,0.003c0.219,0.735-0.082,1.348-0.28,1.646c-0.309,0.464-0.726,0.738-0.979,0.771
		c-0.062,0.004-0.113-0.01-0.166-0.054c-0.185-0.15-0.304-0.545-0.353-0.83c0.257-0.301,0.952-1.188,0.988-2.088
		c0.035-0.777,0.442-1.538,0.621-1.802l0.877-0.411c0.625,0.427,1.04,0.728,1.151,0.843l0.194,0.184
		c0.41,0.38,1.264,1.173,1.366,1.992c0.146,1.153,1.506,3.804,3.066,4.545c0.145,0.067,0.318,0.009,0.385-0.131
		c0.07-0.149,0.007-0.321-0.136-0.391c-1.367-0.654-2.613-3.078-2.743-4.1c-0.126-1.025-1.05-1.881-1.546-2.342l-0.173-0.163
		c-0.4-0.403-2.963-2.073-3.743-2.575c-0.751-0.488-0.927-1.111-0.964-1.44c-0.044-0.385,0.054-0.765,0.25-0.967
		c0.293-0.304,0.95-0.547,1.42-0.208c0.536,0.381,1.897,1.021,2.8,1.447l0.595,0.282c0.557,0.272,1.029,0.653,1.032,0.657
		c0.067,0.058,1.779,1.522,2.386,1.925c0.817,0.541,1.507,0.201,1.756-0.057c0.11-0.115,0.109-0.293-0.002-0.404
		c-0.112-0.114-0.294-0.114-0.407-0.004c-0.041,0.04-0.422,0.381-1.026-0.018c-0.292-0.19-0.875-0.662-1.384-1.083l3.981-1.867
		c0.169,0.254,0.301,0.502,0.375,0.71l0.299,0.818c0.405,1.095,1.022,2.752,1.247,3.676c0.387,1.592,1.399,2.478,2.178,2.948
		c0.352,0.208,0.789,0.371,1.231,0.5c0.026,1.346-0.141,4.539-2.257,5.575C-3.634,33.183-3.859,33.094-3.92,33.078z M-0.108,35.166
		c-0.179-0.08-2.16-0.992-2.979-1.373c1.799-0.875,2.373-2.996,2.528-4.641c0.065-0.704,0.055-1.314,0.038-1.697
		c0.569,0.14,2.597,0.626,2.953,0.716c-0.014,0.496-0.039,0.957-0.079,1.386C1.944,33.898,0.293,34.97-0.108,35.166z"/>
	<g>
		<path fill="#040000" d="M21.805,14.573c-0.15-0.12-0.339-0.183-0.531-0.183h-0.057h-4.052c-0.195,0-0.385,0.063-0.535,0.183
			l-7.038,5.411c-0.13,0.098-0.153,0.284-0.055,0.415l0.905,1.176c0.097,0.126,0.271,0.167,0.396,0.07
			c0.333-0.254,1.015-0.78,1.827-1.402v5.039v2.485v3.658c0,0.158-0.122,0.297-0.282,0.297c-0.195,0-0.352,0-0.465,0
			c-0.093,0-0.175,0.058-0.175,0.15v1.775c0,0.091,0.065,0.149,0.145,0.149h4.01c0.098,0,0.195-0.014,0.288-0.049l2.393-0.874
			c0.079-0.024,0.119-0.114,0.091-0.186l-0.611-1.68c-0.028-0.071-0.109-0.117-0.185-0.084c-0.373,0.131-1.422,0.518-1.94,0.704
			c-0.186,0.068-0.382,0.094-0.583,0.094c-0.091,0-0.196,0-0.315,0c-0.162,0-0.29-0.138-0.29-0.298v-3.365
			c0-0.164,0.132-0.293,0.294-0.293h3.544c0.189,0,0.368,0.085,0.483,0.232l4.466,5.684c0.057,0.076,0.145,0.115,0.241,0.115h3.749
			c0.083,0,0.15-0.06,0.15-0.15v-1.775c0-0.092-0.089-0.149-0.18-0.149c-0.474,0-1.814,0-2.563,0c-0.181,0-0.354-0.069-0.464-0.21
			c-0.074-0.092-0.162-0.207-0.266-0.342c-0.093-0.119-0.063-0.303,0.08-0.359l1.172-0.475c0.08-0.033,0.115-0.123,0.082-0.195
			l-0.662-1.648c-0.031-0.079-0.121-0.114-0.194-0.088l-1.734,0.702c-0.165,0.067-0.351,0.021-0.459-0.117
			c-0.266-0.344-0.535-0.68-0.785-1.005c-0.075-0.092,0.006-0.219,0.122-0.219h3.803c0.081,0,0.15-0.066,0.15-0.147v-7.376
			c0.781,0.601,1.441,1.112,1.786,1.377c0.137,0.104,0.331,0.093,0.436-0.044l0.901-1.177c0.103-0.127,0.079-0.316-0.049-0.414
			L21.805,14.573z M23.694,25.371c0,0.172-0.122,0.312-0.288,0.312c-1.756,0-6.563,0-8.349,0c-0.168,0-0.312-0.128-0.312-0.299
			c0-0.034,0-0.068,0-0.104c0-0.09,0-0.184,0-0.276c0-0.16,0.133-0.285,0.294-0.285h8.359c0.168,0,0.295,0.147,0.295,0.319
			C23.694,25.152,23.694,25.267,23.694,25.371z M23.694,22.33c0,0.171-0.127,0.311-0.295,0.311H15.04
			c-0.167,0-0.294-0.14-0.294-0.311c0-0.128,0-0.254,0-0.375c0-0.156,0.127-0.283,0.288-0.283c1.752,0,6.563,0,8.345,0
			c0.166,0,0.315,0.116,0.315,0.283C23.694,22.075,23.694,22.201,23.694,22.33z M24.734,19.592h-4.18
			c-0.166,0-0.299-0.132-0.299-0.293v-0.415c0-0.082-0.065-0.15-0.149-0.15h-1.777c-0.084,0-0.149,0.068-0.149,0.15v0.415
			c0,0.162-0.133,0.293-0.299,0.293h-4.375c1.597-1.228,3.377-2.594,3.925-3.018c0.085-0.064,0.185-0.105,0.293-0.105
			c0.646,0,2.298,0,2.966,0c0.1,0,0.203,0.022,0.283,0.085c0.514,0.394,2.327,1.787,3.958,3.042h-0.198V19.592z"/>
		<path fill="#040000" d="M39.891,21.292h1.484c0.164,0,0.293-0.133,0.293-0.295v-1.561c0-0.162-0.129-0.295-0.293-0.295h-1.484
			c-0.16,0-0.298,0.133-0.298,0.295v1.561C39.593,21.159,39.73,21.292,39.891,21.292z"/>
		<path fill="#040000" d="M42.934,21.292h1.484c0.161,0,0.291-0.133,0.291-0.295v-1.561c0-0.162-0.13-0.295-0.291-0.295h-1.484
			c-0.163,0-0.3,0.133-0.3,0.295v1.561C42.634,21.159,42.771,21.292,42.934,21.292z"/>
		<path fill="#040000" d="M78.177,17.582h1.482c0.167,0,0.298-0.132,0.298-0.295v-1.56c0-0.163-0.131-0.295-0.298-0.295h-1.482
			c-0.166,0-0.295,0.132-0.295,0.295v1.56C77.882,17.449,78.011,17.582,78.177,17.582z"/>
		<path fill="#040000" d="M82.702,15.432h-1.485c-0.162,0-0.292,0.132-0.292,0.295v1.56c0,0.163,0.13,0.295,0.292,0.295h1.485
			c0.161,0,0.298-0.132,0.298-0.295v-1.56C83,15.563,82.863,15.432,82.702,15.432z"/>
		<path fill="#040000" d="M63.643,19.558h-1.038H51.551c-0.08,0-0.148,0.068-0.148,0.149v12.394c0,0.081,0.068,0.147,0.148,0.147
			h12.092c0.088,0,0.149-0.066,0.149-0.147V19.707C63.792,19.626,63.73,19.558,63.643,19.558z M61.417,29.555
			c0,0.162-0.116,0.32-0.286,0.32c-1.674,0-5.349,0-7.043,0c-0.164,0-0.311-0.126-0.311-0.296c0-1.719,0-5.591,0-7.327
			c0-0.177,0.137-0.321,0.311-0.321c1.694,0,5.369,0,7.043,0c0.159,0,0.286,0.133,0.286,0.293
			C61.417,23.942,61.417,27.816,61.417,29.555z"/>
		<path fill="#040000" d="M80.763,19.489H79.87h-7.413c-0.091,0-0.159-0.065-0.159-0.145v-0.31c0-0.163-0.129-0.295-0.292-0.295
			h-1.783c-0.164,0-0.299,0.134-0.299,0.3c0,0.853,0,2.546,0,3.285c0,0.091-0.026,0.173-0.083,0.247
			c-0.265,0.376-0.76,1.062-1.014,1.418c-0.092,0.128-0.049,0.307,0.079,0.402l1.452,1.03c0.13,0.1,0.313,0.067,0.406-0.062
			l1.367-1.905c0.107-0.161,0.166-0.346,0.166-0.541v-0.9c0-0.087,0.089-0.149,0.18-0.149c1.765,0,4.783,0,6.087,0
			c0.073,0,0.117,0.08,0.117,0.154c0,1.539,0,4.691,0,5.648c0,0.101-0.036,0.196-0.106,0.267c-0.75,0.757-3.654,3.661-4.459,4.467
			c-0.114,0.106-0.113,0.293,0.002,0.408l1.264,1.265c0.116,0.115,0.303,0.115,0.419,0l5.047-5.05
			c0.138-0.134,0.21-0.319,0.21-0.506v-8.728C81.058,19.625,80.926,19.489,80.763,19.489z"/>
		<path fill="#040000" d="M38.22,22.542c-0.137-0.133-0.322-0.212-0.508-0.212h-0.194H32.69c-0.162,0-0.292,0.133-0.292,0.299v4.528
			c0,0.161,0.13,0.29,0.292,0.29h1.784c0.162,0,0.291-0.129,0.291-0.29c0-0.483,0-1.473,0-2.291c0-0.093,0.089-0.159,0.181-0.159
			c0.786,0,1.476,0,1.938,0c0.092,0,0.183,0.041,0.242,0.103c0.968,0.966,6.327,6.325,7.49,7.488
			c0.116,0.116,0.311,0.129,0.435,0.012l1.257-1.257c0.115-0.115,0.115-0.31,0-0.426L38.22,22.542z"/>
	</g>
</g>
</svg>
